# xmcd
#
# Track frame offsets:
#	150
#	15156
#	28001
#	44817
#	56818
#	69875
#	85498
#	100412
#	109680
#	119374
#	133802
#	150169
#	162009
#	182013
#	194756
#	211265
#
# Disc length: 3029 seconds
# Revision: 1
# Processed by: cddbd v1.5.2PL0 Copyright (c) Steve Scherf et al.
# Submitted via: dBpowerAMP V12.0
#
DISCID=d80bd310
DTITLE=Various Artist - Boy Better Know - Edition 1 - Shh Hut Yuh Muh
DYEAR=2006
DGENRE=Grime
TTITLE0=JME - Serious Remix
TTITLE1=JME (By DaVinChe) - Just Being Me
TTITLE2=JME - 96 Bars Of Revenge
TTITLE3=JME - A W O H
TTITLE4=JME (By J Sweet) - Deadout
TTITLE5=JME (Feat. Skepta) - Don't Get Rude
TTITLE6=JME - Old School
TTITLE7=JME - Freestyle
TTITLE8=JME - Subbuteo
TTITLE9=JME - Certified Badman
TTITLE10=JME (By Plastician) - Shutup And Dance
TTITLE11=JME (By Balistiq) - Final Boss
TTITLE12=JME (Feat. Syer, Wiley and Scorcher) - That's Hype
TTITLE13=Trigz - Reach That High
TTITLE14=Wiley - Eskiboy
TTITLE15=Skepta - F**kin' Widda Team
EXTD=
EXTT0=
EXTT1=
EXTT2=
EXTT3=
EXTT4=
EXTT5=
EXTT6=
EXTT7=
EXTT8=
EXTT9=
EXTT10=
EXTT11=
EXTT12=
EXTT13=
EXTT14=
EXTT15=
PLAYORDER=
